<?xml version="1.0" standalone="no"?>
<!DOCTYPE svg PUBLIC "-//W3C//DTD SVG 20010904//EN"
 "http://www.w3.org/TR/2001/REC-SVG-20010904/DTD/svg10.dtd">
<svg version="1.0" xmlns="http://www.w3.org/2000/svg"
 width="500.000000pt" height="500.000000pt" viewBox="0 0 500.000000 500.000000"
 preserveAspectRatio="xMidYMid meet">

<g transform="translate(0.000000,500.000000) scale(0.100000,-0.100000)"
fill="#000000" stroke="none">
<path d="M2510 4837 l0 -93 -27 -2 c-326 -23 -359 -29 -558 -94 -102 -34 -336
-155 -434 -225 -358 -258 -607 -641 -701 -1078 -31 -142 -39 -437 -16 -592 95
-648 541 -1187 1156 -1398 72 -25 174 -75 328 -160 122 -69 227 -125 232 -125
5 0 11 42 12 93 l3 92 109 7 c60 3 120 10 135 14 14 4 30 6 34 5 5 -1 29 6 54
14 25 9 48 13 51 10 3 -2 11 0 18 6 7 6 26 11 43 11 17 1 28 5 25 10 -5 7 19
12 54 11 8 -1 9 3 4 11 -5 6 -8 59 -7 118 0 60 -1 108 -2 108 -1 0 -37 -11
-80 -24 -108 -34 -220 -54 -340 -62 l-103 -7 0 123 c0 95 -3 121 -13 117 -7
-2 -88 -48 -180 -100 l-168 -95 -81 25 c-526 161 -922 598 -1040 1146 -32 150
-32 447 1 597 31 144 62 236 126 365 66 135 133 237 222 335 143 158 276 261
458 353 191 96 369 145 562 154 l112 6 3 -121 3 -121 174 100 c95 54 181 99
190 99 10 0 44 -9 77 -20 32 -11 64 -20 69 -20 7 0 11 26 11 63 0 46 3 61 13
59 7 -1 10 2 6 7 -3 6 8 17 25 26 16 8 30 17 30 19 0 2 -16 13 -36 25 -20 12
-32 26 -28 32 4 8 -1 9 -16 4 -17 -5 -21 -4 -15 6 6 9 2 11 -14 6 -13 -3 -21
-3 -18 0 9 8 -85 53 -96 46 -6 -3 -7 -1 -3 5 6 11 -6 16 -26 13 -5 0 -8 4 -8
11 0 6 -3 9 -6 6 -3 -4 -14 2 -25 13 -11 11 -24 17 -29 14 -6 -4 -10 -2 -10 2
0 5 -14 17 -31 27 -18 11 -29 13 -24 6 6 -9 3 -10 -14 -1 -11 7 -21 16 -21 22
0 6 -4 8 -8 5 -5 -3 -43 15 -85 39 l-77 44 0 -92z"/>
<path d="M1590 3758 c-20 -22 -20 -30 -20 -840 l0 -819 25 -24 c23 -24 30 -25
138 -25 98 0 118 3 138 19 l24 19 0 827 0 827 -24 19 c-20 16 -40 19 -142 19
-109 0 -120 -2 -139 -22z"/>
<path d="M2124 3405 l-24 -25 2 -644 c3 -604 4 -646 21 -663 14 -14 38 -19
107 -21 l90 -4 0 691 0 691 -85 0 c-78 0 -88 -2 -111 -25z"/>
<path d="M2632 1004 c-25 -17 -31 -71 -10 -92 18 -18 73 -14 91 6 24 27 21 58
-9 81 -32 25 -43 26 -72 5z"/>
<path d="M1125 770 c-23 -11 -50 -35 -60 -52 l-20 -33 -3 48 -3 47 -45 0 -44
0 2 -287 3 -288 41 -3 42 -3 4 198 c4 209 7 222 56 275 31 33 69 43 119 29 43
-12 56 -4 67 41 5 23 2 28 -26 37 -46 16 -88 13 -133 -9z"/>
<path d="M1495 766 c-95 -44 -145 -138 -145 -272 0 -136 36 -214 123 -268 40
-24 62 -30 128 -34 98 -6 153 13 203 69 43 47 45 72 10 88 -25 11 -29 9 -59
-23 -38 -42 -71 -56 -130 -56 -104 0 -156 49 -180 167 l-6 33 203 2 203 3 3
62 c4 81 -11 135 -51 180 -45 51 -98 73 -182 73 -53 0 -82 -6 -120 -24z m195
-64 c42 -21 68 -63 72 -117 l3 -40 -155 0 -155 0 -3 25 c-4 39 38 111 78 132
44 23 115 23 160 0z"/>
<path d="M3095 771 c-23 -10 -53 -32 -67 -49 -30 -36 -38 -32 -38 20 0 39 0
39 -37 36 l-38 -3 -3 -287 -2 -288 45 0 45 0 0 178 c0 98 5 195 11 217 17 59
74 112 132 120 66 10 117 -10 139 -55 15 -30 18 -65 18 -247 l0 -213 45 0 45
0 0 208 c0 232 -10 289 -57 334 -16 15 -41 32 -56 37 -44 17 -137 13 -182 -8z"/>
<path d="M3704 772 c-81 -33 -126 -87 -150 -183 -31 -119 -6 -242 63 -319 52
-58 108 -80 202 -80 174 0 269 118 259 323 -6 137 -49 211 -148 256 -57 26
-167 27 -226 3z m206 -85 c60 -40 75 -78 75 -192 0 -85 -3 -106 -23 -142 -67
-126 -276 -105 -314 32 -14 52 -14 173 1 217 11 34 62 91 91 101 8 3 42 6 76
6 48 1 68 -4 94 -22z"/>
<path d="M1940 776 c0 -5 184 -492 203 -539 l16 -38 58 3 58 3 107 285 c59
157 108 286 108 288 0 1 -19 2 -43 2 l-43 0 -89 -235 c-49 -129 -94 -234 -99
-232 -12 4 -41 75 -121 288 -32 85 -62 160 -68 167 -8 10 -87 18 -87 8z"/>
<path d="M2622 493 l3 -288 43 -3 42 -3 0 290 0 291 -45 0 -45 0 2 -287z"/>
</g>
</svg>
